<svg xmlns="http://www.w3.org/2000/svg" xmlns:xlink="http://www.w3.org/1999/xlink" width="500" zoomAndPan="magnify" viewBox="0 0 375 374.999991" height="500" preserveAspectRatio="xMidYMid meet" version="1.0"><defs><clipPath id="4cbf1470a5"><path d="M 10 30 L 365 30 L 365 345 L 10 345 Z M 10 30 " clip-rule="nonzero"/></clipPath><clipPath id="c6d624761a"><path d="M -37.355469 263.882812 L 142.746094 -45.828125 L 412.421875 110.996094 L 232.324219 420.703125 Z M -37.355469 263.882812 " clip-rule="nonzero"/></clipPath><clipPath id="37618cd45b"><path d="M 284.675781 41.023438 L 362.027344 177.023438 C 365.703125 183.484375 365.664062 191.40625 361.929688 197.828125 L 282.75 333.984375 C 279.015625 340.410156 272.148438 344.359375 264.71875 344.363281 L 108.257812 344.398438 C 100.839844 344.398438 93.992188 340.417969 90.324219 333.96875 L 12.972656 197.96875 C 9.300781 191.511719 9.335938 183.585938 13.070312 177.164062 L 92.25 41.007812 C 95.984375 34.582031 102.851562 30.632812 110.28125 30.628906 L 266.742188 30.59375 C 274.160156 30.59375 281.007812 34.574219 284.675781 41.023438 Z M 284.675781 41.023438 " clip-rule="nonzero"/></clipPath><clipPath id="f67388349d"><path d="M 23 42 L 352 42 L 352 333 L 23 333 Z M 23 42 " clip-rule="nonzero"/></clipPath><clipPath id="9dfa469da0"><path d="M -19.945312 257.96875 L 146.214844 -27.765625 L 395.019531 116.917969 L 228.859375 402.652344 Z M -19.945312 257.96875 " clip-rule="nonzero"/></clipPath><clipPath id="b0fad1647f"><path d="M 276.132812 50.5625 L 349.546875 179.636719 C 352.300781 184.480469 352.273438 190.421875 349.472656 195.238281 L 274.34375 324.4375 C 271.539062 329.253906 266.390625 332.21875 260.816406 332.21875 L 112.328125 332.253906 C 106.761719 332.253906 101.628906 329.269531 98.875 324.433594 L 25.464844 195.355469 C 22.710938 190.515625 22.738281 184.570312 25.539062 179.753906 L 100.667969 50.554688 C 103.46875 45.738281 108.621094 42.773438 114.195312 42.773438 L 262.683594 42.738281 C 268.25 42.738281 273.382812 45.726562 276.132812 50.5625 Z M 276.132812 50.5625 " clip-rule="nonzero"/></clipPath><clipPath id="9d6bdf642c"><path d="M 56 71 L 319 71 L 319 304 L 56 304 Z M 56 71 " clip-rule="nonzero"/></clipPath><clipPath id="2198127832"><path d="M 20.90625 244.085938 L 154.34375 14.621094 L 354.152344 130.8125 L 220.710938 360.277344 Z M 20.90625 244.085938 " clip-rule="nonzero"/></clipPath><clipPath id="bf53e0e783"><path d="M 259.554688 79.0625 L 316.757812 179.636719 C 319.511719 184.480469 319.484375 190.421875 316.683594 195.242188 L 258.128906 295.929688 C 255.328125 300.75 250.179688 303.710938 244.605469 303.714844 L 128.902344 303.738281 C 123.339844 303.742188 118.203125 300.753906 115.453125 295.917969 L 58.25 195.34375 C 55.492188 190.5 55.523438 184.558594 58.324219 179.742188 L 116.875 79.050781 C 119.675781 74.234375 124.828125 71.269531 130.402344 71.265625 L 246.105469 71.242188 C 251.667969 71.238281 256.804688 74.226562 259.554688 79.0625 Z M 259.554688 79.0625 " clip-rule="nonzero"/></clipPath><clipPath id="e8ebcfcb43"><path d="M 111 121 L 264 121 L 264 254 L 111 254 Z M 111 121 " clip-rule="nonzero"/></clipPath><clipPath id="e51a8a1871"><path d="M 92.601562 220.449219 L 169.226562 88.675781 L 282.425781 154.503906 L 205.800781 286.273438 Z M 92.601562 220.449219 " clip-rule="nonzero"/></clipPath><clipPath id="593c1b051a"><path d="M 225.800781 121.636719 L 263.25 187.484375 L 224.949219 253.34375 L 149.199219 253.363281 L 111.75 187.515625 L 150.050781 121.65625 Z M 225.800781 121.636719 " clip-rule="nonzero"/></clipPath><clipPath id="9f7f6e5ddc"><path d="M 121 70 L 322 70 L 322 188 L 121 188 Z M 121 70 " clip-rule="nonzero"/></clipPath><clipPath id="64ad86ac4d"><path d="M 121.660156 70.828125 L 321.65625 187.128906 L 287.589844 245.710938 L 87.59375 129.40625 Z M 121.660156 70.828125 " clip-rule="nonzero"/></clipPath><clipPath id="e9899700af"><path d="M 187.496094 187.503906 L 321.464844 187.019531 L 121.660156 70.828125 Z M 187.496094 187.503906 " clip-rule="nonzero"/></clipPath><clipPath id="a1cfb1598a"><path d="M 121 70 L 322 70 L 322 188 L 121 188 Z M 121 70 " clip-rule="nonzero"/></clipPath><clipPath id="703a8cd076"><path d="M 321.175781 187.484375 L 121.136719 71.160156 L 155.484375 12.097656 L 355.523438 128.421875 Z M 321.175781 187.484375 " clip-rule="nonzero"/></clipPath><clipPath id="b82e9c7d56"><path d="M 255.621094 70.324219 L 121.367188 71.296875 L 321.175781 187.484375 Z M 255.621094 70.324219 " clip-rule="nonzero"/></clipPath></defs><g clip-path="url(#4cbf1470a5)"><g clip-path="url(#c6d624761a)"><g clip-path="url(#37618cd45b)"><path fill="#000000" d="M -38.582031 265.988281 L 143.96875 -47.933594 L 413.648438 108.886719 L 231.097656 422.8125 Z M -38.582031 265.988281 " fill-opacity="1" fill-rule="nonzero"/></g></g></g><g clip-path="url(#f67388349d)"><g clip-path="url(#9dfa469da0)"><g clip-path="url(#b0fad1647f)"><path fill="#f50ca0" d="M -21.074219 259.914062 L 147.34375 -29.710938 L 396.148438 114.972656 L 227.726562 404.597656 Z M -21.074219 259.914062 " fill-opacity="1" fill-rule="nonzero"/></g></g></g><g clip-path="url(#9d6bdf642c)"><g clip-path="url(#2198127832)"><g clip-path="url(#bf53e0e783)"><path fill="#ffffff" d="M 19.996094 245.644531 L 155.25 13.058594 L 355.058594 129.25 L 219.804688 361.835938 Z M 19.996094 245.644531 " fill-opacity="1" fill-rule="nonzero"/></g></g></g><g clip-path="url(#e8ebcfcb43)"><g clip-path="url(#e51a8a1871)"><g clip-path="url(#593c1b051a)"><path fill="#f50ca0" d="M 92.601562 220.449219 L 169.226562 88.675781 L 282.425781 154.503906 L 205.800781 286.273438 Z M 92.601562 220.449219 " fill-opacity="1" fill-rule="nonzero"/></g></g></g><g clip-path="url(#9f7f6e5ddc)"><g clip-path="url(#64ad86ac4d)"><g clip-path="url(#e9899700af)"><path fill="#f50ca0" d="M 121.660156 70.828125 L 321.425781 186.996094 L 287.363281 245.578125 L 87.59375 129.40625 Z M 121.660156 70.828125 " fill-opacity="1" fill-rule="nonzero"/></g></g></g><g clip-path="url(#a1cfb1598a)"><g clip-path="url(#703a8cd076)"><g clip-path="url(#b82e9c7d56)"><path fill="#f50ca0" d="M 321.175781 187.484375 L 121.367188 71.296875 L 155.714844 12.230469 L 355.523438 128.421875 Z M 321.175781 187.484375 " fill-opacity="1" fill-rule="nonzero"/></g></g></g></svg>