<svg xmlns="http://www.w3.org/2000/svg" xmlns:xlink="http://www.w3.org/1999/xlink" width="500" zoomAndPan="magnify" viewBox="0 0 375 374.999991" height="500" preserveAspectRatio="xMidYMid meet" version="1.0"><defs><g/></defs><g fill="#f50ca0" fill-opacity="1"><g transform="translate(48.552745, 264.450482)"><g><path d="M 39.359375 0 L 67.59375 0 C 69.203125 0 70.640625 -1.4375 70.640625 -3.0625 L 70.640625 -14.015625 C 70.640625 -15.640625 69.203125 -17.078125 67.59375 -17.078125 L 39.359375 -17.078125 C 37.75 -17.078125 36.3125 -18.515625 36.3125 -20.125 L 36.3125 -65.421875 C 36.3125 -67.046875 37.75 -68.484375 39.359375 -68.484375 L 67.59375 -68.484375 C 69.203125 -68.484375 70.640625 -69.921875 70.640625 -71.546875 L 70.640625 -82.5 C 70.640625 -84.125 69.203125 -85.5625 67.59375 -85.5625 L 39.359375 -85.5625 C 37.75 -85.5625 36.3125 -87 36.3125 -88.609375 L 36.3125 -116.84375 C 36.3125 -118.453125 34.875 -119.890625 33.25 -119.890625 L 22.28125 -119.890625 C 20.671875 -119.890625 19.234375 -118.453125 19.234375 -116.84375 L 19.234375 -88.609375 C 19.234375 -87 17.796875 -85.5625 16.171875 -85.5625 L 5.21875 -85.5625 C 3.59375 -85.5625 2.15625 -84.125 2.15625 -82.5 L 2.15625 -71.546875 C 2.15625 -69.921875 3.59375 -68.484375 5.21875 -68.484375 L 16.171875 -68.484375 C 17.796875 -68.484375 19.234375 -67.046875 19.234375 -65.421875 L 19.234375 -20.125 C 19.234375 -18.515625 20.671875 -17.078125 22.28125 -17.078125 L 33.25 -17.078125 C 34.875 -17.078125 36.3125 -15.640625 36.3125 -14.015625 L 36.3125 -3.0625 C 36.3125 -1.4375 37.75 0 39.359375 0 Z M 39.359375 0 "/></g></g></g><g fill="#f50ca0" fill-opacity="1"><g transform="translate(121.348311, 264.450482)"><g><path d="M 22.28125 0 L 67.59375 0 C 69.203125 0 70.640625 -1.4375 70.640625 -3.0625 L 70.640625 -14.015625 C 70.640625 -15.640625 69.203125 -17.078125 67.59375 -17.078125 L 22.28125 -17.078125 C 20.671875 -17.078125 19.234375 -18.515625 19.234375 -20.125 L 19.234375 -31.09375 C 19.234375 -32.71875 20.671875 -34.15625 22.28125 -34.15625 L 67.59375 -34.15625 C 69.203125 -34.15625 70.640625 -35.59375 70.640625 -37.203125 L 70.640625 -65.421875 C 70.640625 -67.046875 69.203125 -68.484375 67.59375 -68.484375 L 56.625 -68.484375 C 55 -68.484375 53.5625 -69.921875 53.5625 -71.546875 L 53.5625 -82.5 C 53.5625 -84.125 52.125 -85.5625 50.515625 -85.5625 L 22.28125 -85.5625 C 20.671875 -85.5625 19.234375 -84.125 19.234375 -82.5 L 19.234375 -71.546875 C 19.234375 -69.921875 17.796875 -68.484375 16.171875 -68.484375 L 5.21875 -68.484375 C 3.59375 -68.484375 2.15625 -67.046875 2.15625 -65.421875 L 2.15625 -20.125 C 2.15625 -18.515625 3.59375 -17.078125 5.21875 -17.078125 L 16.171875 -17.078125 C 17.796875 -17.078125 19.234375 -15.640625 19.234375 -14.015625 L 19.234375 -3.0625 C 19.234375 -1.4375 20.671875 0 22.28125 0 Z M 19.234375 -54.46875 L 19.234375 -65.421875 C 19.234375 -67.046875 20.671875 -68.484375 22.28125 -68.484375 L 50.515625 -68.484375 C 52.125 -68.484375 53.5625 -67.046875 53.5625 -65.421875 L 53.5625 -54.46875 C 53.5625 -52.84375 52.125 -51.40625 50.515625 -51.40625 L 22.28125 -51.40625 C 20.671875 -51.40625 19.234375 -52.84375 19.234375 -54.46875 Z M 19.234375 -54.46875 "/></g></g></g><g fill="#f50ca0" fill-opacity="1"><g transform="translate(194.143876, 264.450482)"><g><path d="M 22.28125 0 L 67.59375 0 C 69.203125 0 70.640625 -1.4375 70.640625 -3.0625 L 70.640625 -14.015625 C 70.640625 -15.640625 69.203125 -17.078125 67.59375 -17.078125 L 22.28125 -17.078125 C 20.671875 -17.078125 19.234375 -18.515625 19.234375 -20.125 L 19.234375 -65.421875 C 19.234375 -67.046875 20.671875 -68.484375 22.28125 -68.484375 L 67.59375 -68.484375 C 69.203125 -68.484375 70.640625 -69.921875 70.640625 -71.546875 L 70.640625 -82.5 C 70.640625 -84.125 69.203125 -85.5625 67.59375 -85.5625 L 22.28125 -85.5625 C 20.671875 -85.5625 19.234375 -84.125 19.234375 -82.5 L 19.234375 -71.546875 C 19.234375 -69.921875 17.796875 -68.484375 16.171875 -68.484375 L 5.21875 -68.484375 C 3.59375 -68.484375 2.15625 -67.046875 2.15625 -65.421875 L 2.15625 -20.125 C 2.15625 -18.515625 3.59375 -17.078125 5.21875 -17.078125 L 16.171875 -17.078125 C 17.796875 -17.078125 19.234375 -15.640625 19.234375 -14.015625 L 19.234375 -3.0625 C 19.234375 -1.4375 20.671875 0 22.28125 0 Z M 22.28125 0 "/></g></g></g><g fill="#f50ca0" fill-opacity="1"><g transform="translate(266.939441, 264.450482)"><g><path d="M 5.21875 0 L 16.171875 0 C 17.796875 0 19.234375 -1.4375 19.234375 -3.0625 L 19.234375 -65.421875 C 19.234375 -67.046875 20.671875 -68.484375 22.28125 -68.484375 L 50.515625 -68.484375 C 52.125 -68.484375 53.5625 -67.046875 53.5625 -65.421875 L 53.5625 -3.0625 C 53.5625 -1.4375 55 0 56.625 0 L 67.59375 0 C 69.203125 0 70.640625 -1.4375 70.640625 -3.0625 L 70.640625 -65.421875 C 70.640625 -67.046875 69.203125 -68.484375 67.59375 -68.484375 L 56.625 -68.484375 C 55 -68.484375 53.5625 -69.921875 53.5625 -71.546875 L 53.5625 -82.5 C 53.5625 -84.125 52.125 -85.5625 50.515625 -85.5625 L 22.28125 -85.5625 C 20.671875 -85.5625 19.234375 -87 19.234375 -88.609375 L 19.234375 -116.84375 C 19.234375 -118.453125 17.796875 -119.890625 16.171875 -119.890625 L 5.21875 -119.890625 C 3.59375 -119.890625 2.15625 -118.453125 2.15625 -116.84375 L 2.15625 -3.0625 C 2.15625 -1.4375 3.59375 0 5.21875 0 Z M 5.21875 0 "/></g></g></g><g fill="#000000" fill-opacity="1"><g transform="translate(48.552745, 134.403152)"><g><path d="M 37.390625 -22.3125 L 37.390625 -43.171875 L 53.84375 -43.171875 L 53.84375 0 L 46.015625 0 L 40.640625 -13.03125 C 39.390625 -8.195312 37.191406 -4.613281 34.046875 -2.28125 C 30.898438 0.0507812 27.15625 1.21875 22.8125 1.21875 C 17.050781 1.21875 12.472656 -0.570312 9.078125 -4.15625 C 5.679688 -7.738281 3.984375 -13.003906 3.984375 -19.953125 L 3.984375 -43.171875 L 20.28125 -43.171875 L 20.28125 -22.40625 C 20.28125 -18.925781 20.90625 -16.503906 22.15625 -15.140625 C 23.40625 -13.785156 25.46875 -13.109375 28.34375 -13.109375 C 31.21875 -13.109375 33.441406 -13.910156 35.015625 -15.515625 C 36.597656 -17.117188 37.390625 -19.382812 37.390625 -22.3125 Z M 37.390625 -22.3125 "/></g></g></g><g fill="#000000" fill-opacity="1"><g transform="translate(107.442736, 134.403152)"><g><path d="M 56.859375 0 L 38.125 0 L 26.96875 -18.078125 L 20.765625 -10.5 L 20.765625 0 L 5.046875 0 L 5.046875 -59.453125 L 20.765625 -59.453125 L 20.765625 -24.84375 L 35.4375 -43.171875 L 56.046875 -43.171875 L 40.640625 -25.328125 Z M 56.859375 0 "/></g></g></g><g fill="#000000" fill-opacity="1"><g transform="translate(163.726253, 134.403152)"><g><path d="M 21.90625 -55.625 C 21.90625 -58.070312 21.144531 -60.015625 19.625 -61.453125 C 18.101562 -62.890625 15.960938 -63.609375 13.203125 -63.609375 C 10.367188 -63.609375 8.207031 -62.890625 6.71875 -61.453125 C 5.226562 -60.015625 4.484375 -58.070312 4.484375 -55.625 C 4.484375 -53.1875 5.226562 -51.25 6.71875 -49.8125 C 8.207031 -48.375 10.367188 -47.65625 13.203125 -47.65625 C 15.960938 -47.65625 18.101562 -48.375 19.625 -49.8125 C 21.144531 -51.25 21.90625 -53.1875 21.90625 -55.625 Z M 21.34375 0 L 5.046875 0 L 5.046875 -43.171875 L 21.34375 -43.171875 Z M 21.34375 0 "/></g></g></g><g fill="#000000" fill-opacity="1"><g transform="translate(190.116799, 134.403152)"><g><path d="M 27.046875 -16.375 L 37.0625 -43.171875 L 53.921875 -43.171875 L 37.0625 -2.359375 C 35.050781 2.523438 32.972656 6.40625 30.828125 9.28125 C 28.679688 12.164062 26.15625 14.242188 23.25 15.515625 C 20.34375 16.796875 16.773438 17.4375 12.546875 17.4375 C 10.640625 17.4375 8.859375 17.3125 7.203125 17.0625 C 5.546875 16.820312 4.175781 16.566406 3.09375 16.296875 L 3.09375 3.265625 C 4.289062 3.367188 5.515625 3.472656 6.765625 3.578125 C 8.015625 3.691406 9.125 3.75 10.09375 3.75 C 12.164062 3.75 13.726562 3.367188 14.78125 2.609375 C 15.84375 1.847656 16.726562 0.570312 17.4375 -1.21875 L -0.890625 -43.171875 L 16.9375 -43.171875 Z M 27.046875 -16.375 "/></g></g></g><g fill="#000000" fill-opacity="1"><g transform="translate(243.142231, 134.403152)"><g><path d="M 29.328125 1.21875 C 23.460938 1.21875 18.519531 0.269531 14.5 -1.625 C 10.476562 -3.53125 7.4375 -6.140625 5.375 -9.453125 C 3.3125 -12.765625 2.28125 -16.507812 2.28125 -20.6875 L 2.28125 -22.484375 C 2.28125 -26.710938 3.3125 -30.46875 5.375 -33.75 C 7.4375 -37.039062 10.476562 -39.632812 14.5 -41.53125 C 18.519531 -43.4375 23.460938 -44.390625 29.328125 -44.390625 C 35.242188 -44.390625 40.207031 -43.4375 44.21875 -41.53125 C 48.238281 -39.632812 51.28125 -37.039062 53.34375 -33.75 C 55.414062 -30.46875 56.453125 -26.710938 56.453125 -22.484375 L 56.453125 -20.6875 C 56.453125 -16.507812 55.414062 -12.765625 53.34375 -9.453125 C 51.28125 -6.140625 48.238281 -3.53125 44.21875 -1.625 C 40.207031 0.269531 35.242188 1.21875 29.328125 1.21875 Z M 29.328125 -12.0625 C 33.015625 -12.0625 35.726562 -12.890625 37.46875 -14.546875 C 39.207031 -16.203125 40.078125 -18.601562 40.078125 -21.75 C 40.078125 -24.738281 39.207031 -27.046875 37.46875 -28.671875 C 35.726562 -30.296875 33.015625 -31.109375 29.328125 -31.109375 C 25.679688 -31.109375 22.988281 -30.296875 21.25 -28.671875 C 19.519531 -27.046875 18.65625 -24.738281 18.65625 -21.75 C 18.65625 -18.601562 19.519531 -16.203125 21.25 -14.546875 C 22.988281 -12.890625 25.679688 -12.0625 29.328125 -12.0625 Z M 29.328125 -12.0625 "/></g></g></g></svg>