<svg xmlns="http://www.w3.org/2000/svg" xmlns:xlink="http://www.w3.org/1999/xlink" width="500" zoomAndPan="magnify" viewBox="0 0 375 374.999991" height="500" preserveAspectRatio="xMidYMid meet" version="1.0"><defs><filter x="0%" y="0%" width="100%" height="100%" id="0688f326b8"><feColorMatrix values="0 0 0 0 1 0 0 0 0 1 0 0 0 0 1 0 0 0 1 0" color-interpolation-filters="sRGB"/></filter><g/><mask id="5093b21951"><g filter="url(#0688f326b8)"><rect x="-37.5" width="450" fill="#000000" y="-37.499999" height="449.999989" fill-opacity="0.37"/></g></mask><clipPath id="fef1c001ee"><rect x="0" width="267" y="0" height="176"/></clipPath></defs><g mask="url(#5093b21951)"><g transform="matrix(1, 0, 0, 1, 84, 87)"><g clip-path="url(#fef1c001ee)"><g fill="#a6a6a6" fill-opacity="1"><g transform="translate(1.497633, 145.814208)"><g><path d="M 126.671875 -121.859375 C 108.453125 -116.765625 75.796875 -113.40625 48.546875 -111.65625 C 49.859375 -109.171875 51.15625 -105.390625 51.3125 -102.765625 C 79 -104.078125 112.234375 -107.421875 133.515625 -113.265625 Z M 113.84375 -73.3125 C 118.796875 -80.609375 124.78125 -91.546875 129.734375 -101.015625 L 119.8125 -105.25 C 116.328125 -96.640625 110.203125 -84.546875 105.390625 -76.96875 Z M 97.375 -78.5625 C 95.90625 -84.984375 92.265625 -94.75 89.203125 -102.1875 L 80.03125 -99.40625 C 82.796875 -91.828125 86.296875 -81.625 87.75 -75.0625 Z M 73.03125 -77.40625 C 70.984375 -83.53125 66.328125 -92.859375 62.09375 -99.84375 L 53.34375 -96.5 C 57.28125 -89.359375 61.796875 -79.59375 63.84375 -73.46875 Z M 45.625 -105.09375 C 39.640625 -109.171875 27.984375 -115.890625 19.53125 -120.546875 L 13.40625 -112.828125 C 22.015625 -107.859375 33.53125 -100.578125 39.359375 -96.34375 Z M 38.625 -67.046875 C 32.5 -70.984375 20.546875 -77.25 11.953125 -81.34375 L 5.96875 -73.609375 C 14.71875 -68.953125 26.53125 -62.234375 32.5 -58.15625 Z M 19.09375 9.03125 C 26.96875 -4.375 36.296875 -22.734375 43.4375 -38.1875 L 35.125 -44.890625 C 27.40625 -28.125 17.046875 -9.03125 9.765625 2.484375 Z M 136 -37.609375 L 96.5 -37.609375 L 96.5 -41.984375 C 106.703125 -48.6875 117.625 -58.15625 125.21875 -66.609375 L 118.21875 -72.15625 L 115.890625 -71.578125 L 53.78125 -71.578125 L 53.78125 -61.65625 L 106.40625 -61.65625 C 100.28125 -55.828125 92.703125 -49.703125 86 -45.625 L 86 -37.609375 L 45.625 -37.609375 L 45.625 -27.546875 L 86 -27.546875 L 86 -0.578125 C 86 1.3125 85.421875 1.75 83.234375 1.75 C 81.1875 1.890625 73.609375 1.890625 66.171875 1.609375 C 67.640625 4.375 69.390625 8.15625 69.828125 11.078125 C 79.875 11.078125 86.4375 11.078125 90.8125 9.46875 C 95.328125 7.875 96.5 5.390625 96.5 -0.296875 L 96.5 -27.546875 L 136 -27.546875 Z M 136 -37.609375 "/></g></g></g><g fill="#a6a6a6" fill-opacity="1"><g transform="translate(126.993558, 145.814208)"><g><path d="M 105.25 -75.21875 L 105.25 -39.203125 L 77.40625 -39.203125 L 77.40625 -75.21875 Z M 116.328125 -29.15625 L 116.328125 -75.21875 L 138.046875 -75.21875 L 138.046875 -85.703125 L 116.328125 -85.703125 L 116.328125 -119.53125 L 105.25 -119.53125 L 105.25 -85.703125 L 77.40625 -85.703125 L 77.40625 -121.28125 L 66.765625 -121.28125 L 66.765625 -85.703125 L 40.234375 -85.703125 L 40.234375 -117.921875 L 29 -117.921875 L 29 -85.703125 L 7.875 -85.703125 L 7.875 -75.21875 L 29 -75.21875 L 29 1.75 L 133.953125 1.75 L 133.953125 -8.890625 L 40.234375 -8.890625 L 40.234375 -75.21875 L 66.765625 -75.21875 L 66.765625 -29.15625 Z M 116.328125 -29.15625 "/></g></g></g></g></g></g><g fill="#f50ca0" fill-opacity="1"><g transform="translate(32.442798, 220.081217)"><g><path d="M 19.328125 0 L 33.1875 0 C 33.984375 0 34.6875 -0.703125 34.6875 -1.5 L 34.6875 -6.890625 C 34.6875 -7.671875 33.984375 -8.390625 33.1875 -8.390625 L 19.328125 -8.390625 C 18.53125 -8.390625 17.828125 -9.09375 17.828125 -9.890625 L 17.828125 -32.125 C 17.828125 -32.921875 18.53125 -33.625 19.328125 -33.625 L 33.1875 -33.625 C 33.984375 -33.625 34.6875 -34.328125 34.6875 -35.125 L 34.6875 -40.515625 C 34.6875 -41.3125 33.984375 -42.015625 33.1875 -42.015625 L 19.328125 -42.015625 C 18.53125 -42.015625 17.828125 -42.71875 17.828125 -43.515625 L 17.828125 -57.375 C 17.828125 -58.171875 17.125 -58.875 16.328125 -58.875 L 10.9375 -58.875 C 10.15625 -58.875 9.4375 -58.171875 9.4375 -57.375 L 9.4375 -43.515625 C 9.4375 -42.71875 8.734375 -42.015625 7.9375 -42.015625 L 2.5625 -42.015625 C 1.765625 -42.015625 1.0625 -41.3125 1.0625 -40.515625 L 1.0625 -35.125 C 1.0625 -34.328125 1.765625 -33.625 2.5625 -33.625 L 7.9375 -33.625 C 8.734375 -33.625 9.4375 -32.921875 9.4375 -32.125 L 9.4375 -9.890625 C 9.4375 -9.09375 10.15625 -8.390625 10.9375 -8.390625 L 16.328125 -8.390625 C 17.125 -8.390625 17.828125 -7.671875 17.828125 -6.890625 L 17.828125 -1.5 C 17.828125 -0.703125 18.53125 0 19.328125 0 Z M 19.328125 0 "/></g></g></g><g fill="#f50ca0" fill-opacity="1"><g transform="translate(68.185658, 220.081217)"><g><path d="M 10.9375 0 L 33.1875 0 C 33.984375 0 34.6875 -0.703125 34.6875 -1.5 L 34.6875 -6.890625 C 34.6875 -7.671875 33.984375 -8.390625 33.1875 -8.390625 L 10.9375 -8.390625 C 10.15625 -8.390625 9.4375 -9.09375 9.4375 -9.890625 L 9.4375 -15.265625 C 9.4375 -16.0625 10.15625 -16.765625 10.9375 -16.765625 L 33.1875 -16.765625 C 33.984375 -16.765625 34.6875 -17.484375 34.6875 -18.265625 L 34.6875 -32.125 C 34.6875 -32.921875 33.984375 -33.625 33.1875 -33.625 L 27.796875 -33.625 C 27.015625 -33.625 26.296875 -34.328125 26.296875 -35.125 L 26.296875 -40.515625 C 26.296875 -41.3125 25.59375 -42.015625 24.796875 -42.015625 L 10.9375 -42.015625 C 10.15625 -42.015625 9.4375 -41.3125 9.4375 -40.515625 L 9.4375 -35.125 C 9.4375 -34.328125 8.734375 -33.625 7.9375 -33.625 L 2.5625 -33.625 C 1.765625 -33.625 1.0625 -32.921875 1.0625 -32.125 L 1.0625 -9.890625 C 1.0625 -9.09375 1.765625 -8.390625 2.5625 -8.390625 L 7.9375 -8.390625 C 8.734375 -8.390625 9.4375 -7.671875 9.4375 -6.890625 L 9.4375 -1.5 C 9.4375 -0.703125 10.15625 0 10.9375 0 Z M 9.4375 -26.75 L 9.4375 -32.125 C 9.4375 -32.921875 10.15625 -33.625 10.9375 -33.625 L 24.796875 -33.625 C 25.59375 -33.625 26.296875 -32.921875 26.296875 -32.125 L 26.296875 -26.75 C 26.296875 -25.953125 25.59375 -25.25 24.796875 -25.25 L 10.9375 -25.25 C 10.15625 -25.25 9.4375 -25.953125 9.4375 -26.75 Z M 9.4375 -26.75 "/></g></g></g><g fill="#f50ca0" fill-opacity="1"><g transform="translate(103.928518, 220.081217)"><g><path d="M 10.9375 0 L 33.1875 0 C 33.984375 0 34.6875 -0.703125 34.6875 -1.5 L 34.6875 -6.890625 C 34.6875 -7.671875 33.984375 -8.390625 33.1875 -8.390625 L 10.9375 -8.390625 C 10.15625 -8.390625 9.4375 -9.09375 9.4375 -9.890625 L 9.4375 -32.125 C 9.4375 -32.921875 10.15625 -33.625 10.9375 -33.625 L 33.1875 -33.625 C 33.984375 -33.625 34.6875 -34.328125 34.6875 -35.125 L 34.6875 -40.515625 C 34.6875 -41.3125 33.984375 -42.015625 33.1875 -42.015625 L 10.9375 -42.015625 C 10.15625 -42.015625 9.4375 -41.3125 9.4375 -40.515625 L 9.4375 -35.125 C 9.4375 -34.328125 8.734375 -33.625 7.9375 -33.625 L 2.5625 -33.625 C 1.765625 -33.625 1.0625 -32.921875 1.0625 -32.125 L 1.0625 -9.890625 C 1.0625 -9.09375 1.765625 -8.390625 2.5625 -8.390625 L 7.9375 -8.390625 C 8.734375 -8.390625 9.4375 -7.671875 9.4375 -6.890625 L 9.4375 -1.5 C 9.4375 -0.703125 10.15625 0 10.9375 0 Z M 10.9375 0 "/></g></g></g><g fill="#f50ca0" fill-opacity="1"><g transform="translate(139.671378, 220.081217)"><g><path d="M 2.5625 0 L 7.9375 0 C 8.734375 0 9.4375 -0.703125 9.4375 -1.5 L 9.4375 -32.125 C 9.4375 -32.921875 10.15625 -33.625 10.9375 -33.625 L 24.796875 -33.625 C 25.59375 -33.625 26.296875 -32.921875 26.296875 -32.125 L 26.296875 -1.5 C 26.296875 -0.703125 27.015625 0 27.796875 0 L 33.1875 0 C 33.984375 0 34.6875 -0.703125 34.6875 -1.5 L 34.6875 -32.125 C 34.6875 -32.921875 33.984375 -33.625 33.1875 -33.625 L 27.796875 -33.625 C 27.015625 -33.625 26.296875 -34.328125 26.296875 -35.125 L 26.296875 -40.515625 C 26.296875 -41.3125 25.59375 -42.015625 24.796875 -42.015625 L 10.9375 -42.015625 C 10.15625 -42.015625 9.4375 -42.71875 9.4375 -43.515625 L 9.4375 -57.375 C 9.4375 -58.171875 8.734375 -58.875 7.9375 -58.875 L 2.5625 -58.875 C 1.765625 -58.875 1.0625 -58.171875 1.0625 -57.375 L 1.0625 -1.5 C 1.0625 -0.703125 1.765625 0 2.5625 0 Z M 2.5625 0 "/></g></g></g><g fill="#000000" fill-opacity="1"><g transform="translate(31.915454, 159.330172)"><g><path d="M 18.359375 -10.953125 L 18.359375 -21.203125 L 26.4375 -21.203125 L 26.4375 0 L 22.59375 0 L 19.953125 -6.40625 C 19.347656 -4.03125 18.269531 -2.269531 16.71875 -1.125 C 15.175781 0.0195312 13.335938 0.59375 11.203125 0.59375 C 8.367188 0.59375 6.117188 -0.285156 4.453125 -2.046875 C 2.785156 -3.804688 1.953125 -6.390625 1.953125 -9.796875 L 1.953125 -21.203125 L 9.953125 -21.203125 L 9.953125 -11 C 9.953125 -9.289062 10.257812 -8.101562 10.875 -7.4375 C 11.488281 -6.769531 12.503906 -6.4375 13.921875 -6.4375 C 15.335938 -6.4375 16.429688 -6.828125 17.203125 -7.609375 C 17.972656 -8.398438 18.359375 -9.515625 18.359375 -10.953125 Z M 18.359375 -10.953125 "/></g></g></g><g fill="#000000" fill-opacity="1"><g transform="translate(60.832578, 159.330172)"><g><path d="M 27.921875 0 L 18.71875 0 L 13.234375 -8.875 L 10.203125 -5.15625 L 10.203125 0 L 2.484375 0 L 2.484375 -29.203125 L 10.203125 -29.203125 L 10.203125 -12.203125 L 17.40625 -21.203125 L 27.515625 -21.203125 L 19.953125 -12.4375 Z M 27.921875 0 "/></g></g></g><g fill="#000000" fill-opacity="1"><g transform="translate(88.469829, 159.330172)"><g><path d="M 10.765625 -27.3125 C 10.765625 -28.519531 10.390625 -29.472656 9.640625 -30.171875 C 8.890625 -30.878906 7.835938 -31.234375 6.484375 -31.234375 C 5.097656 -31.234375 4.035156 -30.878906 3.296875 -30.171875 C 2.566406 -29.472656 2.203125 -28.519531 2.203125 -27.3125 C 2.203125 -26.113281 2.566406 -25.160156 3.296875 -24.453125 C 4.035156 -23.753906 5.097656 -23.40625 6.484375 -23.40625 C 7.835938 -23.40625 8.890625 -23.753906 9.640625 -24.453125 C 10.390625 -25.160156 10.765625 -26.113281 10.765625 -27.3125 Z M 10.484375 0 L 2.484375 0 L 2.484375 -21.203125 L 10.484375 -21.203125 Z M 10.484375 0 "/></g></g></g><g fill="#000000" fill-opacity="1"><g transform="translate(101.428546, 159.330172)"><g><path d="M 13.28125 -8.046875 L 18.203125 -21.203125 L 26.484375 -21.203125 L 18.203125 -1.15625 C 17.210938 1.238281 16.191406 3.144531 15.140625 4.5625 C 14.085938 5.976562 12.847656 7 11.421875 7.625 C 9.992188 8.25 8.238281 8.5625 6.15625 8.5625 C 5.226562 8.5625 4.351562 8.5 3.53125 8.375 C 2.71875 8.257812 2.046875 8.132812 1.515625 8 L 1.515625 1.59375 C 2.109375 1.65625 2.707031 1.710938 3.3125 1.765625 C 3.925781 1.816406 4.472656 1.84375 4.953125 1.84375 C 5.972656 1.84375 6.742188 1.65625 7.265625 1.28125 C 7.785156 0.90625 8.21875 0.28125 8.5625 -0.59375 L -0.4375 -21.203125 L 8.3125 -21.203125 Z M 13.28125 -8.046875 "/></g></g></g><g fill="#000000" fill-opacity="1"><g transform="translate(127.465959, 159.330172)"><g><path d="M 14.40625 0.59375 C 11.519531 0.59375 9.085938 0.128906 7.109375 -0.796875 C 5.140625 -1.734375 3.648438 -3.015625 2.640625 -4.640625 C 1.628906 -6.265625 1.125 -8.101562 1.125 -10.15625 L 1.125 -11.046875 C 1.125 -13.117188 1.628906 -14.960938 2.640625 -16.578125 C 3.648438 -18.191406 5.140625 -19.460938 7.109375 -20.390625 C 9.085938 -21.328125 11.519531 -21.796875 14.40625 -21.796875 C 17.3125 -21.796875 19.75 -21.328125 21.71875 -20.390625 C 23.695312 -19.460938 25.191406 -18.191406 26.203125 -16.578125 C 27.210938 -14.960938 27.71875 -13.117188 27.71875 -11.046875 L 27.71875 -10.15625 C 27.71875 -8.101562 27.210938 -6.265625 26.203125 -4.640625 C 25.191406 -3.015625 23.695312 -1.734375 21.71875 -0.796875 C 19.75 0.128906 17.3125 0.59375 14.40625 0.59375 Z M 14.40625 -5.921875 C 16.21875 -5.921875 17.550781 -6.328125 18.40625 -7.140625 C 19.257812 -7.953125 19.6875 -9.132812 19.6875 -10.6875 C 19.6875 -12.144531 19.257812 -13.273438 18.40625 -14.078125 C 17.550781 -14.878906 16.21875 -15.28125 14.40625 -15.28125 C 12.613281 -15.28125 11.289062 -14.878906 10.4375 -14.078125 C 9.582031 -13.273438 9.15625 -12.144531 9.15625 -10.6875 C 9.15625 -9.132812 9.582031 -7.953125 10.4375 -7.140625 C 11.289062 -6.328125 12.613281 -5.921875 14.40625 -5.921875 Z M 14.40625 -5.921875 "/></g></g></g></svg>