<svg xmlns="http://www.w3.org/2000/svg" xmlns:xlink="http://www.w3.org/1999/xlink" width="500" zoomAndPan="magnify" viewBox="0 0 375 374.999991" height="500" preserveAspectRatio="xMidYMid meet" version="1.0"><defs><g/></defs><g fill="#f50ca0" fill-opacity="1"><g transform="translate(183.497937, 217.357896)"><g><path d="M 21.71875 0 L 37.296875 0 C 38.1875 0 38.984375 -0.796875 38.984375 -1.6875 L 38.984375 -7.734375 C 38.984375 -8.625 38.1875 -9.421875 37.296875 -9.421875 L 21.71875 -9.421875 C 20.828125 -9.421875 20.03125 -10.21875 20.03125 -11.109375 L 20.03125 -36.109375 C 20.03125 -37 20.828125 -37.796875 21.71875 -37.796875 L 37.296875 -37.796875 C 38.1875 -37.796875 38.984375 -38.578125 38.984375 -39.484375 L 38.984375 -45.53125 C 38.984375 -46.421875 38.1875 -47.21875 37.296875 -47.21875 L 21.71875 -47.21875 C 20.828125 -47.21875 20.03125 -48 20.03125 -48.90625 L 20.03125 -64.46875 C 20.03125 -65.359375 19.25 -66.15625 18.34375 -66.15625 L 12.296875 -66.15625 C 11.40625 -66.15625 10.609375 -65.359375 10.609375 -64.46875 L 10.609375 -48.90625 C 10.609375 -48 9.8125 -47.21875 8.921875 -47.21875 L 2.875 -47.21875 C 1.984375 -47.21875 1.1875 -46.421875 1.1875 -45.53125 L 1.1875 -39.484375 C 1.1875 -38.578125 1.984375 -37.796875 2.875 -37.796875 L 8.921875 -37.796875 C 9.8125 -37.796875 10.609375 -37 10.609375 -36.109375 L 10.609375 -11.109375 C 10.609375 -10.21875 11.40625 -9.421875 12.296875 -9.421875 L 18.34375 -9.421875 C 19.25 -9.421875 20.03125 -8.625 20.03125 -7.734375 L 20.03125 -1.6875 C 20.03125 -0.796875 20.828125 0 21.71875 0 Z M 21.71875 0 "/></g></g></g><g fill="#f50ca0" fill-opacity="1"><g transform="translate(223.668894, 217.357896)"><g><path d="M 12.296875 0 L 37.296875 0 C 38.1875 0 38.984375 -0.796875 38.984375 -1.6875 L 38.984375 -7.734375 C 38.984375 -8.625 38.1875 -9.421875 37.296875 -9.421875 L 12.296875 -9.421875 C 11.40625 -9.421875 10.609375 -10.21875 10.609375 -11.109375 L 10.609375 -17.15625 C 10.609375 -18.046875 11.40625 -18.84375 12.296875 -18.84375 L 37.296875 -18.84375 C 38.1875 -18.84375 38.984375 -19.640625 38.984375 -20.53125 L 38.984375 -36.109375 C 38.984375 -37 38.1875 -37.796875 37.296875 -37.796875 L 31.25 -37.796875 C 30.34375 -37.796875 29.5625 -38.578125 29.5625 -39.484375 L 29.5625 -45.53125 C 29.5625 -46.421875 28.765625 -47.21875 27.875 -47.21875 L 12.296875 -47.21875 C 11.40625 -47.21875 10.609375 -46.421875 10.609375 -45.53125 L 10.609375 -39.484375 C 10.609375 -38.578125 9.8125 -37.796875 8.921875 -37.796875 L 2.875 -37.796875 C 1.984375 -37.796875 1.1875 -37 1.1875 -36.109375 L 1.1875 -11.109375 C 1.1875 -10.21875 1.984375 -9.421875 2.875 -9.421875 L 8.921875 -9.421875 C 9.8125 -9.421875 10.609375 -8.625 10.609375 -7.734375 L 10.609375 -1.6875 C 10.609375 -0.796875 11.40625 0 12.296875 0 Z M 10.609375 -30.046875 L 10.609375 -36.109375 C 10.609375 -37 11.40625 -37.796875 12.296875 -37.796875 L 27.875 -37.796875 C 28.765625 -37.796875 29.5625 -37 29.5625 -36.109375 L 29.5625 -30.046875 C 29.5625 -29.15625 28.765625 -28.375 27.875 -28.375 L 12.296875 -28.375 C 11.40625 -28.375 10.609375 -29.15625 10.609375 -30.046875 Z M 10.609375 -30.046875 "/></g></g></g><g fill="#f50ca0" fill-opacity="1"><g transform="translate(263.83985, 217.357896)"><g><path d="M 12.296875 0 L 37.296875 0 C 38.1875 0 38.984375 -0.796875 38.984375 -1.6875 L 38.984375 -7.734375 C 38.984375 -8.625 38.1875 -9.421875 37.296875 -9.421875 L 12.296875 -9.421875 C 11.40625 -9.421875 10.609375 -10.21875 10.609375 -11.109375 L 10.609375 -36.109375 C 10.609375 -37 11.40625 -37.796875 12.296875 -37.796875 L 37.296875 -37.796875 C 38.1875 -37.796875 38.984375 -38.578125 38.984375 -39.484375 L 38.984375 -45.53125 C 38.984375 -46.421875 38.1875 -47.21875 37.296875 -47.21875 L 12.296875 -47.21875 C 11.40625 -47.21875 10.609375 -46.421875 10.609375 -45.53125 L 10.609375 -39.484375 C 10.609375 -38.578125 9.8125 -37.796875 8.921875 -37.796875 L 2.875 -37.796875 C 1.984375 -37.796875 1.1875 -37 1.1875 -36.109375 L 1.1875 -11.109375 C 1.1875 -10.21875 1.984375 -9.421875 2.875 -9.421875 L 8.921875 -9.421875 C 9.8125 -9.421875 10.609375 -8.625 10.609375 -7.734375 L 10.609375 -1.6875 C 10.609375 -0.796875 11.40625 0 12.296875 0 Z M 12.296875 0 "/></g></g></g><g fill="#f50ca0" fill-opacity="1"><g transform="translate(304.010807, 217.357896)"><g><path d="M 2.875 0 L 8.921875 0 C 9.8125 0 10.609375 -0.796875 10.609375 -1.6875 L 10.609375 -36.109375 C 10.609375 -37 11.40625 -37.796875 12.296875 -37.796875 L 27.875 -37.796875 C 28.765625 -37.796875 29.5625 -37 29.5625 -36.109375 L 29.5625 -1.6875 C 29.5625 -0.796875 30.34375 0 31.25 0 L 37.296875 0 C 38.1875 0 38.984375 -0.796875 38.984375 -1.6875 L 38.984375 -36.109375 C 38.984375 -37 38.1875 -37.796875 37.296875 -37.796875 L 31.25 -37.796875 C 30.34375 -37.796875 29.5625 -38.578125 29.5625 -39.484375 L 29.5625 -45.53125 C 29.5625 -46.421875 28.765625 -47.21875 27.875 -47.21875 L 12.296875 -47.21875 C 11.40625 -47.21875 10.609375 -48 10.609375 -48.90625 L 10.609375 -64.46875 C 10.609375 -65.359375 9.8125 -66.15625 8.921875 -66.15625 L 2.875 -66.15625 C 1.984375 -66.15625 1.1875 -65.359375 1.1875 -64.46875 L 1.1875 -1.6875 C 1.1875 -0.796875 1.984375 0 2.875 0 Z M 2.875 0 "/></g></g></g><g fill="#ffffff" fill-opacity="1"><g transform="translate(20.845433, 218.531705)"><g><path d="M 20.421875 -12.1875 L 20.421875 -23.578125 L 29.421875 -23.578125 L 29.421875 0 L 25.140625 0 L 22.203125 -7.125 C 21.523438 -4.476562 20.320312 -2.515625 18.59375 -1.234375 C 16.875 0.0351562 14.828125 0.671875 12.453125 0.671875 C 9.316406 0.671875 6.820312 -0.304688 4.96875 -2.265625 C 3.113281 -4.222656 2.1875 -7.101562 2.1875 -10.90625 L 2.1875 -23.578125 L 11.078125 -23.578125 L 11.078125 -12.234375 C 11.078125 -10.335938 11.414062 -9.019531 12.09375 -8.28125 C 12.78125 -7.539062 13.910156 -7.171875 15.484375 -7.171875 C 17.054688 -7.171875 18.269531 -7.609375 19.125 -8.484375 C 19.988281 -9.359375 20.421875 -10.59375 20.421875 -12.1875 Z M 20.421875 -12.1875 "/></g></g></g><g fill="#ffffff" fill-opacity="1"><g transform="translate(53.016078, 218.531705)"><g><path d="M 31.0625 0 L 20.828125 0 L 14.734375 -9.875 L 11.34375 -5.734375 L 11.34375 0 L 2.765625 0 L 2.765625 -32.484375 L 11.34375 -32.484375 L 11.34375 -13.578125 L 19.359375 -23.578125 L 30.609375 -23.578125 L 22.203125 -13.84375 Z M 31.0625 0 "/></g></g></g><g fill="#ffffff" fill-opacity="1"><g transform="translate(83.762848, 218.531705)"><g><path d="M 11.96875 -30.390625 C 11.96875 -31.722656 11.550781 -32.78125 10.71875 -33.5625 C 9.894531 -34.351562 8.722656 -34.75 7.203125 -34.75 C 5.660156 -34.75 4.484375 -34.351562 3.671875 -33.5625 C 2.859375 -32.78125 2.453125 -31.722656 2.453125 -30.390625 C 2.453125 -29.054688 2.859375 -27.992188 3.671875 -27.203125 C 4.484375 -26.421875 5.660156 -26.03125 7.203125 -26.03125 C 8.722656 -26.03125 9.894531 -26.421875 10.71875 -27.203125 C 11.550781 -27.992188 11.96875 -29.054688 11.96875 -30.390625 Z M 11.65625 0 L 2.765625 0 L 2.765625 -23.578125 L 11.65625 -23.578125 Z M 11.65625 0 "/></g></g></g><g fill="#ffffff" fill-opacity="1"><g transform="translate(98.179576, 218.531705)"><g><path d="M 14.78125 -8.9375 L 20.25 -23.578125 L 29.453125 -23.578125 L 20.25 -1.296875 C 19.144531 1.378906 18.003906 3.503906 16.828125 5.078125 C 15.660156 6.648438 14.285156 7.78125 12.703125 8.46875 C 11.117188 9.164062 9.171875 9.515625 6.859375 9.515625 C 5.816406 9.515625 4.84375 9.445312 3.9375 9.3125 C 3.03125 9.1875 2.28125 9.050781 1.6875 8.90625 L 1.6875 1.78125 C 2.34375 1.84375 3.007812 1.898438 3.6875 1.953125 C 4.375 2.015625 4.984375 2.046875 5.515625 2.046875 C 6.640625 2.046875 7.488281 1.835938 8.0625 1.421875 C 8.644531 1.003906 9.128906 0.304688 9.515625 -0.671875 L -0.484375 -23.578125 L 9.25 -23.578125 Z M 14.78125 -8.9375 "/></g></g></g><g fill="#ffffff" fill-opacity="1"><g transform="translate(127.146505, 218.531705)"><g><path d="M 16.015625 0.671875 C 12.816406 0.671875 10.117188 0.148438 7.921875 -0.890625 C 5.722656 -1.929688 4.0625 -3.351562 2.9375 -5.15625 C 1.8125 -6.96875 1.25 -9.015625 1.25 -11.296875 L 1.25 -12.28125 C 1.25 -14.59375 1.8125 -16.644531 2.9375 -18.4375 C 4.0625 -20.238281 5.722656 -21.65625 7.921875 -22.6875 C 10.117188 -23.726562 12.816406 -24.25 16.015625 -24.25 C 19.253906 -24.25 21.96875 -23.726562 24.15625 -22.6875 C 26.351562 -21.65625 28.015625 -20.238281 29.140625 -18.4375 C 30.273438 -16.644531 30.84375 -14.59375 30.84375 -12.28125 L 30.84375 -11.296875 C 30.84375 -9.015625 30.273438 -6.96875 29.140625 -5.15625 C 28.015625 -3.351562 26.351562 -1.929688 24.15625 -0.890625 C 21.96875 0.148438 19.253906 0.671875 16.015625 0.671875 Z M 16.015625 -6.59375 C 18.035156 -6.59375 19.519531 -7.039062 20.46875 -7.9375 C 21.414062 -8.84375 21.890625 -10.15625 21.890625 -11.875 C 21.890625 -13.507812 21.414062 -14.769531 20.46875 -15.65625 C 19.519531 -16.550781 18.035156 -17 16.015625 -17 C 14.023438 -17 12.554688 -16.550781 11.609375 -15.65625 C 10.660156 -14.769531 10.1875 -13.507812 10.1875 -11.875 C 10.1875 -10.15625 10.660156 -8.84375 11.609375 -7.9375 C 12.554688 -7.039062 14.023438 -6.59375 16.015625 -6.59375 Z M 16.015625 -6.59375 "/></g></g></g></svg>